<?xml version="1.0" standalone="no"?>
<!DOCTYPE svg PUBLIC "-//W3C//DTD SVG 20010904//EN"
 "http://www.w3.org/TR/2001/REC-SVG-20010904/DTD/svg10.dtd">
<svg version="1.0" xmlns="http://www.w3.org/2000/svg"
 width="612.000000pt" height="612.000000pt" viewBox="0 0 612.000000 612.000000"
 preserveAspectRatio="xMidYMid meet">
<metadata>
Created by potrace 1.14, written by Peter Selinger 2001-2017
</metadata>
<g transform="translate(0.000000,612.000000) scale(0.100000,-0.100000)"
fill="#000000" stroke="none">
<path d="M2150 5912 c0 -4 -9 -8 -20 -9 -11 -1 -30 -12 -42 -25 -24 -24 -36
-28 -105 -30 -24 -1 -43 -4 -43 -7 0 -3 -30 -6 -68 -5 -37 0 -71 -2 -77 -5 -5
-2 -19 -6 -31 -7 -66 -7 -97 -16 -116 -34 -13 -12 -17 -20 -9 -20 11 0 11 -3
1 -15 -9 -11 -9 -15 -1 -15 8 0 9 -5 1 -19 -6 -12 -18 -18 -30 -16 -11 2 -22
-1 -25 -6 -4 -5 -11 -7 -16 -3 -6 3 -25 7 -43 8 -18 2 -44 12 -56 24 -13 12
-30 22 -37 22 -7 0 -13 6 -13 13 0 7 -3 8 -8 2 -10 -15 -122 -16 -122 -2 0 8
-3 8 -8 2 -4 -6 -14 -11 -22 -11 -45 -1 -98 -17 -94 -28 5 -14 -30 -99 -38
-91 -3 3 -11 -8 -18 -25 -7 -16 -17 -30 -22 -30 -5 0 -6 -4 -3 -10 3 -5 1 -10
-5 -10 -32 0 -37 -99 -26 -460 12 -381 19 -511 31 -530 5 -8 4 -11 -2 -7 -12
8 -12 -61 0 -81 5 -6 4 -12 -1 -12 -5 0 -10 -15 -10 -32 0 -18 -3 -76 -6 -128
-11 -164 -13 -610 -2 -610 6 0 6 -4 0 -10 -6 -6 -8 -31 -4 -60 4 -29 2 -50 -3
-50 -5 0 -5 -6 1 -13 6 -7 7 -18 2 -27 -4 -7 -4 -24 1 -37 6 -16 5 -23 -4 -23
-7 0 -8 -3 -2 -8 12 -8 13 -141 2 -159 -4 -6 -4 -14 1 -17 9 -6 13 -75 15
-316 1 -96 6 -181 11 -189 6 -9 5 -12 -1 -8 -14 9 -13 -56 1 -65 7 -5 7 -8 0
-8 -7 0 -10 -114 -10 -360 1 -234 -3 -360 -9 -360 -7 0 -7 -3 0 -8 6 -4 10
-92 10 -229 0 -121 3 -219 7 -216 5 2 4 -7 -1 -20 -5 -13 -5 -30 -1 -37 5 -8
5 -21 0 -30 -5 -9 -5 -22 0 -30 6 -9 5 -17 -3 -22 -7 -5 -8 -8 -1 -8 11 0 11
-51 -1 -69 -3 -6 -2 -11 2 -11 5 0 7 -28 6 -63 -5 -80 -5 -77 0 -109 2 -16 1
-28 -3 -28 -6 0 -6 -25 0 -55 1 -5 1 -12 0 -15 -1 -3 -4 -68 -6 -145 -6 -190
-10 -254 -17 -262 -4 -3 -2 -12 4 -20 6 -7 7 -13 2 -13 -15 0 -10 -44 7 -57 8
-7 12 -13 7 -13 -4 0 2 -17 13 -37 11 -21 20 -47 20 -59 0 -11 3 -24 7 -28 4
-3 8 -16 10 -28 2 -12 9 -26 16 -30 6 -4 8 -8 3 -8 -5 0 -3 -6 3 -13 6 -8 9
-16 6 -18 -2 -3 6 -6 18 -6 26 -2 73 -10 105 -17 12 -3 29 -12 38 -21 9 -8 19
-13 24 -10 5 3 16 -5 24 -17 9 -12 16 -19 16 -14 0 5 8 2 17 -5 14 -12 16 -12
9 1 -6 13 -6 13 6 0 9 -11 31 -15 79 -14 36 0 71 4 77 8 7 4 12 4 12 -1 0 -4
54 -8 121 -8 66 0 123 -3 125 -7 3 -5 14 -4 24 2 13 7 21 7 25 0 4 -6 11 -7
17 -4 13 8 128 14 303 14 152 0 187 -3 225 -17 14 -5 134 -9 267 -8 193 1 245
4 259 16 11 8 15 9 10 2 -5 -10 6 -11 46 -7 84 10 268 10 268 1 0 -4 6 -5 12
0 19 11 58 11 58 0 0 -6 5 -6 13 0 13 11 76 11 93 0 6 -3 14 -3 18 1 12 11
116 9 116 -2 0 -7 3 -8 8 -1 9 13 26 17 93 19 30 1 60 6 67 10 7 4 12 4 12 -1
0 -9 113 -8 129 1 6 4 11 3 11 -2 0 -4 25 -8 55 -8 30 1 55 4 55 7 0 3 12 6
28 6 30 2 90 11 110 18 7 3 11 1 8 -4 -3 -5 9 -9 27 -10 64 -2 143 -2 186 -1
24 1 47 -2 50 -7 3 -4 17 -9 31 -11 45 -5 55 -7 67 -15 6 -4 14 -3 18 3 4 6
12 7 18 3 19 -13 157 -12 157 1 0 6 4 5 9 -3 6 -9 11 -10 15 -2 4 6 12 9 17 6
5 -4 9 1 9 9 0 9 3 16 8 17 7 1 15 2 62 14 19 5 22 4 10 -4 -9 -6 -10 -11 -3
-11 18 0 52 49 48 70 -2 11 0 20 6 20 5 0 9 9 9 20 0 11 6 21 13 22 36 4 43 3
55 -5 8 -6 12 -5 13 2 3 20 4 26 11 37 6 9 10 33 23 129 2 17 4 30 5 30 1 0
10 116 15 205 2 36 4 67 5 70 3 6 3 6 -15 92 -9 48 -13 100 -9 153 8 111 8
601 0 614 -4 6 -2 11 4 11 7 0 8 6 1 17 -5 10 -5 26 0 40 5 13 5 23 0 23 -4 0
-8 309 -8 688 -1 378 -2 719 -3 757 -1 39 -1 75 0 80 1 10 0 145 -3 530 -1
108 -6 183 -12 187 -7 5 -7 8 0 8 11 0 13 58 3 75 -3 6 -4 19 -2 30 6 27 6 35
-1 145 -3 52 -7 169 -9 260 -3 91 -5 167 -6 170 -1 3 -1 10 0 15 1 6 1 37 1
70 -2 121 -2 460 -1 465 1 3 3 21 4 40 2 19 6 49 10 65 8 29 63 170 74 189 8
15 8 76 -1 76 -5 0 -5 4 -2 10 9 15 -14 52 -28 44 -7 -4 -9 -4 -5 0 3 4 -5 24
-18 43 -13 20 -24 42 -24 50 0 8 -4 12 -9 9 -5 -4 -7 2 -4 13 5 21 -32 36 -45
17 -10 -17 -70 -32 -122 -30 -108 4 -150 8 -150 13 0 3 -17 7 -37 9 -20 1 -48
5 -62 8 -71 15 -89 17 -118 18 -18 0 -33 3 -33 6 0 11 -115 6 -122 -5 -5 -6
-8 -6 -8 2 0 9 -7 10 -27 2 -14 -5 -51 -12 -81 -15 -30 -2 -58 -7 -62 -9 -5
-3 -10 1 -13 7 -3 10 -7 10 -18 1 -9 -7 -20 -8 -29 -3 -8 5 -18 6 -23 3 -11
-7 -97 -9 -97 -3 0 3 -34 5 -76 5 -42 0 -78 4 -81 8 -3 4 -11 3 -19 -4 -8 -6
-14 -8 -14 -3 0 5 -124 9 -275 9 -151 0 -275 2 -275 5 0 7 -78 3 -96 -4 -7 -3
-15 0 -18 7 -3 9 -5 8 -5 -1 -1 -8 -6 -10 -13 -5 -17 10 -26 11 -128 19 -153
11 -354 12 -367 2 -9 -7 -13 -7 -13 1 0 7 -39 11 -125 11 -97 0 -127 3 -131
14 -3 7 -15 12 -27 11 -12 0 -29 2 -38 6 -26 13 -79 20 -79 11z"/>
</g>
</svg>
